<svg xmlns="http://www.w3.org/2000/svg" viewBox="0 0 1024 1024"><g id="Layer_2" data-name="Layer 2"><g id="Layer_1-2" data-name="Layer 1"><polygon points="556.57 0 0 824.17 0 511.12 345.17 0 556.57 0"/><polygon points="840.72 0 149.2 1024 0 1024 0 931.89 629.31 0 840.72 0"/><polygon points="556.57 0 0 824.17 0 511.12 345.17 0 556.57 0"/><polygon points="840.72 0 149.2 1024 0 1024 0 931.89 629.31 0 840.72 0"/><polygon points="1024 0 1024 1024 848.8 1024 848.8 436.57 452.1 1024 240.7 1024 848.8 123.53 932.22 0 1024 0"/></g></g></svg>